<svg t="1666532916653" class="icon" viewBox="0 0 1024 1024" version="1.1" xmlns="http://www.w3.org/2000/svg" p-id="10118" width="40" height="40"><path d="M690.8 342.3c13.6-51.4 60.3-90.9 113-93.9 66.8-3.9 149.1 48 101.9 171.1-17.9 46.7 13.3 68.3 13.4 117 0.2 78.9-42.3 110.3-72.7 110.4-83 0.3-78.3-58.8-82.4-93.5" fill="#808080" p-id="10119"></path><path d="M845.9 654.8c-35.5 0-59.5-10.3-73.5-31.4-11.8-17.8-13.7-40-15.2-57.8-0.3-4 1.5-19.7 5.9-20.3 4.4-0.5 8.4 2.6 8.9 7 0.5 3.8 0.8 7.7 1.1 11.9 3 34.9 6.4 74.5 72.8 74.5h0.5c14.6 0 30.1-8.5 41.7-22.7 10.6-13 23.2-37.4 23.1-79.7-0.1-18.7-5.1-33.3-9.9-47.4-7.2-20.8-14.5-42.3-3-72.5 19.1-49.8 17.8-91.7-3.8-121.3-22.9-31.3-61.6-40.6-90.1-39-23.7 1.4-47.3 11-66.5 27-19.1 16-33.1 37.6-39.3 61-1.1 4.3-5.5 6.8-9.8 5.7-4.3-1.1-6.8-5.5-5.7-9.8 7-26.5 22.8-51.1 44.5-69.2 21.8-18.2 48.7-29.1 75.8-30.7 41.8-2.5 81.7 15 104 45.5 17.4 23.8 32.5 66.8 5.8 136.4-9.5 24.8-3.9 41 3.1 61.5 5 14.6 10.7 31.2 10.8 52.6 0.1 25.9-4.5 62.6-26.7 89.8-14.5 17.8-34.7 28.5-54 28.6-0.1 0.3-0.3 0.3-0.5 0.3z" fill="" p-id="10120"></path><path d="M331.4 341.9c-13.8-51.3-60.6-90.7-113.3-93.6-66.8-3.7-149 48.4-101.3 171.4 18.1 46.6-13.1 68.3-13.1 117 0 78.9 42.6 110.1 73 110.1 83 0 78.1-59.1 82.1-93.7" fill="#808080" p-id="10121"></path><path d="M176.7 654.9c-19.3 0-39.5-10.6-54.1-28.4-22.3-27.2-26.9-63.8-26.9-89.7 0-21.4 5.7-38 10.6-52.6 7-20.6 12.5-36.8 3-61.5-26.9-69.5-11.9-112.6 5.4-136.4 22.2-30.6 62-48.1 103.8-45.8 27.1 1.5 54.1 12.3 75.9 30.5 21.7 18 37.6 42.5 44.7 69 1.1 4.3-1.4 8.7-5.7 9.8-4.3 1.1-8.7-1.4-9.8-5.7-6.3-23.3-20.3-45-39.4-60.9-19.2-16-42.9-25.5-66.6-26.8-28.6-1.6-67.2 7.9-90 39.2-21.5 29.6-22.7 71.5-3.4 121.3 11.7 30.2 4.4 51.7-2.7 72.5-4.8 14.1-9.8 28.7-9.8 47.5 0 42.3 12.7 66.6 23.3 79.6 11.5 14.1 27.1 22.5 41.7 22.5 66.9 0 70.2-39.7 73.1-74.7 0.3-4.2 0.7-8.1 1.1-11.9 0.5-4.4 4.5-7.5 8.9-7s6.3 16.2 6 20.3c-1.5 17.8-3.3 39.9-15.1 57.8-13.9 21.1-38.1 31.4-74 31.4z" fill="" p-id="10122"></path><path d="M512.4 516m-258 0a258 258 0 1 0 516 0 258 258 0 1 0-516 0Z" fill="#B3B3B3" p-id="10123"></path><path d="M512.4 274c32.7 0 64.4 6.4 94.2 19 28.8 12.2 54.7 29.6 76.9 51.9 22.2 22.2 39.7 48.1 51.9 76.9 12.6 29.8 19 61.5 19 94.2s-6.4 64.4-19 94.2c-12.2 28.8-29.6 54.7-51.9 76.9-22.2 22.2-48.1 39.7-76.9 51.9-29.8 12.6-61.5 19-94.2 19s-64.4-6.4-94.2-19c-28.8-12.2-54.7-29.6-76.9-51.9-22.2-22.2-39.7-48.1-51.9-76.9-12.6-29.8-19-61.5-19-94.2s6.4-64.4 19-94.2c12.2-28.8 29.6-54.7 51.9-76.9 22.2-22.2 48.1-39.7 76.9-51.9 29.8-12.6 61.5-19 94.2-19m0-16c-142.5 0-258 115.5-258 258s115.5 258 258 258 258-115.5 258-258-115.5-258-258-258z" fill="" p-id="10124"></path><path d="M416.3 429.2m-18 0a18 18 0 1 0 36 0 18 18 0 1 0-36 0Z" fill="" p-id="10125"></path><path d="M608.4 429.2m-18 0a18 18 0 1 0 36 0 18 18 0 1 0-36 0Z" fill="" p-id="10126"></path><path d="M586.3 568c-3.1 20.5-32.3 115 5 186.5 43.3 82.8 79.6 85.5 127.6 89.5 11.1 0.9 22.6 12 22.6 26s-6.3 25.8-21.2 27.4c-75.6 8.3-141.4 1-220.4-92.4-73-86.3-76.5-166-65.7-237" fill="#B3B3B3" p-id="10127"></path><path d="M678.7 907.9c-32.8 0-53.5-5.3-69.8-11-39.7-13.8-77.3-42.2-114.9-86.7-78.5-92.8-77.3-178.8-67.5-243.4 0.7-4.4 4.7-7.4 9.1-6.7 4.4 0.7 7.4 4.7 6.7 9.1-6.3 41.7-5.9 76.6 1.3 109.8 9.3 42.5 29.7 82 62.6 120.8 35.8 42.3 71.1 69.1 108 82 37 12.9 74 11.1 105.4 7.7 11.6-1.3 14.1-11.3 14.1-19.5 0-9.6-8.1-17.4-15.3-18h-0.5c-24-2-46.6-3.9-68.6-16.3-23.7-13.4-44.4-38-64.9-77.5-33.5-64.1-15.9-144.8-8.3-179.2 1.2-5.3 2.1-9.6 2.5-12.2 0.7-4.4 4.7-7.4 9.1-6.7 4.4 0.7 7.4 4.7 6.7 9.1-0.5 3.1-1.4 7.6-2.7 13.2-7.2 32.8-23.9 109.5 6.9 168.4 19.1 36.6 37.7 59.1 58.6 70.9 18.9 10.7 38.9 12.3 62 14.3h0.5c14.5 1.2 30 15.1 30 34 0 19.9-10.9 33.5-28.3 35.4-16.3 1.7-30.4 2.5-42.7 2.5z" fill="" p-id="10128"></path></svg>
