<svg width="16" height="16" viewBox="0 0 16 16" fill="none" xmlns="http://www.w3.org/2000/svg">
<path fill-rule="evenodd" clip-rule="evenodd" d="M15 8C15 11.866 11.866 15 8 15C4.134 15 1 11.866 1 8C1 4.134 4.134 1 8 1C11.866 1 15 4.134 15 8Z" fill="#40B6E0" fill-opacity="0.6"/>
<path fill-rule="evenodd" clip-rule="evenodd" d="M9.9998 9.28213C9.5298 9.74113 9.0278 9.9776 8.0998 9.9996C7.0608 10.0216 5.9998 9.279 5.9998 8C5.9998 6.712 6.9708 5.9996 8.0998 5.9996C8.94813 5.9996 9.54813 6.18435 9.8998 6.55386L10.516 5.83633C9.8292 5.26978 9.28807 5 8.098 5C6.34 5 5 6.358 5 8C5 9.682 6.364 11 8.002 11C9.29265 11 10.023 10.593 10.616 9.981C10.2052 9.51509 9.9998 9.28213 9.9998 9.28213Z" fill="#231F20" fill-opacity="0.7"/>
</svg>
