<svg width="16" height="16" viewBox="0 0 16 16" fill="none" xmlns="http://www.w3.org/2000/svg">
<path fill-rule="evenodd" clip-rule="evenodd" d="M14.9291 9H10.4932C9.1165 9 8 10.076 8 11.403V14.596C8 14.7337 8.012 14.8686 8.03503 14.9999C8.02336 15 8.01168 15 8 15C4.134 15 1 11.866 1 8C1 4.134 4.134 1 8 1C11.866 1 15 4.134 15 8C15 8.33952 14.9758 8.6734 14.9291 9Z" fill="#62B543" fill-opacity="0.6"/>
<path fill-rule="evenodd" clip-rule="evenodd" d="M13 10V15.625V16H12H10.4247C9.638 16 9 15.193 9 14.197V11.8022C9 10.807 9.638 10 10.4247 10H13ZM14 12V11H16V12H14ZM14 15V14H16V15H14Z" fill="#9AA7B0"/>
<path fill-rule="evenodd" clip-rule="evenodd" d="M8.04 11H6V5H10V6H7V7H9V8H7V10H8H8.47L8.405 10.0903C8.21125 10.3594 8.08597 10.6716 8.04 11V11Z" fill="#231F20" fill-opacity="0.7"/>
<path fill-rule="evenodd" clip-rule="evenodd" d="M14.6667 2.14286H16L14 -1.19209e-07L12 2.14286H13.3333V5H14.6667V2.14286Z" fill="#9AA7B0"/>
</svg>
