<svg width="16" height="16" viewBox="0 0 16 16" fill="none" xmlns="http://www.w3.org/2000/svg">
<path fill-rule="evenodd" clip-rule="evenodd" d="M15 8C15 11.866 11.866 15 8 15C4.134 15 1 11.866 1 8C1 4.134 4.134 1 8 1C11.866 1 15 4.134 15 8Z" fill="#62B543" fill-opacity="0.6"/>
<path fill-rule="evenodd" clip-rule="evenodd" d="M14.6667 2.14286H16L14 -1.19209e-07L12 2.14286H13.3333V5H14.6667V2.14286Z" fill="#9AA7B0"/>
<path fill-rule="evenodd" clip-rule="evenodd" d="M7.8125 8C8.7765 8 9 7.6742 9 7.0492V7.0322C9 6.3292 8.7605 6 7.8125 6H7.0005V8H7.8125ZM6.0005 5.0002H7.8325C9.1675 5.0002 10.0005 5.7972 10.0005 7.0062C10.0005 8.3692 8.9725 9 7.7175 9L7.0005 8.9842V11.0002H6.0005V5.0002Z" fill="#231F20" fill-opacity="0.7"/>
</svg>
