<svg width="16" height="16" viewBox="0 0 16 16" fill="none" xmlns="http://www.w3.org/2000/svg">
<path fill-rule="evenodd" clip-rule="evenodd" d="M14.9291 9H10.4932C9.1165 9 8 10.076 8 11.403V14.596C8 14.7337 8.012 14.8686 8.03503 14.9999C8.02336 15 8.01168 15 8 15C4.134 15 1 11.866 1 8C1 4.134 4.134 1 8 1C11.866 1 15 4.134 15 8C15 8.33952 14.9758 8.6734 14.9291 9Z" fill="#62B543" fill-opacity="0.6"/>
<path d="M11.5 13.5V12.8H13.5V13.5H11.5Z" fill="#9AA7B0"/>
<path d="M11.5 13.5V11.5H12.2V13.5H11.5Z" fill="#9AA7B0"/>
<path fill-rule="evenodd" clip-rule="evenodd" d="M14.3333 13C14.3333 14.2887 13.2887 15.3333 12 15.3333C10.7113 15.3333 9.66667 14.2887 9.66667 13C9.66667 11.7113 10.7113 10.6667 12 10.6667C13.2887 10.6667 14.3333 11.7113 14.3333 13ZM15 13C15 11.3431 13.6569 10 12 10C10.3431 10 9 11.3431 9 13C9 14.6569 10.3431 16 12 16C13.6569 16 15 14.6569 15 13Z" fill="#9AA7B0"/>
<path fill-rule="evenodd" clip-rule="evenodd" d="M10.5 6V5H5.5V6H7.5V11C7.73528 11 7.86188 11 8.04 11C7.92248 11 8.15752 11 8.04 11C8.04 10.5395 8.5 9.95 8.5 9.95C8.5 8.56616 8.5 7.59388 8.5 6H10.5Z" fill="#231F20" fill-opacity="0.7"/>
<path fill-rule="evenodd" clip-rule="evenodd" d="M14.6667 2.14286H16L14 -1.19209e-07L12 2.14286H13.3333V5H14.6667V2.14286Z" fill="#9AA7B0"/>
</svg>
