<?xml version="1.0" encoding="utf-8"?>
<!-- Generator: Adobe Illustrator 16.0.4, SVG Export Plug-In . SVG Version: 6.00 Build 0)  -->
<!DOCTYPE svg PUBLIC "-//W3C//DTD SVG 1.1//EN" "http://www.w3.org/Graphics/SVG/1.1/DTD/svg11.dtd">
<svg version="1.1" id="Layer_1" xmlns="http://www.w3.org/2000/svg" x="0px" y="0px"
     width="16px" height="16px" viewBox="0 0 500 500" enable-background="new 0 0 500 500" xml:space="preserve">
<g id="Layer_4">

		<ellipse fill="#331E09" stroke="#000000" stroke-width="0.5" stroke-miterlimit="10" cx="319.737" cy="400.098"
                 rx="13.412" ry="6.29"/>
    <path fill="#F9C89A" stroke="#000000" stroke-width="0.5" stroke-miterlimit="10" d="M219.323,375.172
		c0,0,5.341,22.789,6.053,29.555c0.712,6.765,14.243,9.97,15.668,2.136c1.424-7.833,6.409-27.061,6.409-27.061L219.323,375.172z"/>
    <path fill="#F9C89A" stroke="#000000" stroke-width="0.5" stroke-miterlimit="10" d="M304.425,380.157
		c0,0,7.121,17.092,7.121,26.705c0,9.614,17.093,11.038,18.517,4.629s3.561-31.689,3.561-31.689L304.425,380.157z"/>
    <path fill="#A15813" stroke="#000000" stroke-width="0.5" stroke-miterlimit="10" d="M240.214,395.469
		c-2.849,1.188-10.92,2.136-14.006,0.95c-3.086-1.188,0.238,11.156,1.187,14.954c0.95,3.799,10.92,3.086,10.92,3.086
		L240.214,395.469z"/>

    <ellipse fill="#4F2E0E" stroke="#000000" stroke-width="0.5" stroke-miterlimit="10" cx="223.329" cy="405.26"
             rx="5.964" ry="14.244"/>

    <ellipse fill="#4F2E0E" stroke="#000000" stroke-width="0.5" stroke-miterlimit="10" cx="242.023" cy="406.774"
             rx="6.142" ry="13.976"/>
    <path fill="#9E5613" stroke="#000000" stroke-width="0.5" stroke-miterlimit="10" d="M200.273,446.564c0,0,0-7.476-0.178-16.734
		c-0.178-9.259,9.614-21.009,29.554-20.475s29.199,11.572,29.199,22.255s-0.892,19.228-1.96,21.363
		c-1.066,2.137-52.164,2.849-54.123,0.89C200.808,451.906,200.273,446.564,200.273,446.564z"/>
    <path fill="#4F2E0E" stroke="#000000" stroke-width="0.5" stroke-miterlimit="10" d="M200.273,460.986
		c-3.383-0.891-4.629-4.452-4.807-7.834c-0.178-3.384,2.671-6.231,4.807-6.588c1.603,2.137,4.807,3.027,7.656,3.561
		c2.848,0.533,39.345,0.891,43.618,0.533c4.274-0.355,5.341-2.847,6.054-3.916c3.026,1.069,4.272,4.273,4.451,7.3
		s-1.246,5.875-4.273,6.944c-3.027,1.067-19.05,3.56-30.088,3.382C216.653,464.191,200.273,460.986,200.273,460.986z"/>
    <path fill="#9E5613" stroke="#000000" stroke-width="0.5" stroke-miterlimit="10" d="M333.09,403.302c0,0-9.615,5.697-21.899,1.425
		c-8.012-1.068-10.148-1.068-9.97,2.849c0.177,3.916,1.245,14.6-2.493,19.05s-7.655,16.022-1.958,21.363
		c5.696,5.342,88.127,4.808,91.332,3.918c3.205-0.891,5.164-6.588,5.164-6.588s1.068-12.105,0.712-18.515
		s-9.258-18.159-24.392-17.627c-15.134,0.534-21.363,11.218-28.129,12.643c-5.697-5.343-7.834-11.573-7.834-12.82
		C333.623,407.754,333.09,403.302,333.09,403.302z"/>
    <path fill="#4F2E0E" stroke="#000000" stroke-width="0.5" stroke-miterlimit="10" d="M314.661,422.798
		c5.344,0,9.17-2.403,9.614-7.923c0.445-5.52-0.89-8.546-4.807-8.813c-3.917-0.267-8.724-1.067-11.038-2.581
		s-2.581-4.273-1.602-5.431c0.978-1.157,2.67-2.226,2.67-2.226l-0.623-1.691c0,0-8.813,3.383-8.012,12.818
		C301.665,416.389,306.383,422.798,314.661,422.798z"/>
    <path fill="#4F2E0E" stroke="#000000" stroke-width="0.5" stroke-miterlimit="10" d="M324.364,406.062
		c2.938,1.158,3.562,3.384,3.116,5.787c-0.445,2.402-1.424,9.347,3.649,9.079c5.075-0.267,6.409-10.148,5.965-14.688
		c-0.445-4.54-3.383-8.903-4.717-9.97c-0.18,0.711-0.269,1.334-0.269,1.334s1.01,0.712,1.039,2.493
		C333.179,401.877,330.151,405.26,324.364,406.062z"/>
    <path fill="none" stroke="#000000" stroke-width="0.5" stroke-miterlimit="10" d="M341.457,421.819
		c-2.729,5.934-5.342,24.926-2.967,30.146"/>
    <path fill="#4F2E0E" stroke="#000000" stroke-width="0.5" stroke-miterlimit="10" d="M296.77,447.988c0,0-4.095,2.493-3.739,6.409
		c0.356,3.917,3.383,4.808,7.834,5.876c4.45,1.068,46.646,2.314,54.3,2.67c7.657,0.357,33.827-1.602,38.278-3.382
		c4.452-1.78,8.369-9.614-0.177-14.243c-3.384,3.738-6.054,4.45-11.573,5.163c-5.52,0.712-31.333,0.89-42.017,0.534
		c-10.682-0.357-36.497-0.713-39.168-0.891S296.77,447.988,296.77,447.988z"/>
</g>
    <g id="Layer_2">
	<path fill="#F9C89A" stroke="#000000" stroke-width="0.5" stroke-miterlimit="10" d="M277.897,125.388
		c-1.246,1.424-7.12,8.189-4.271,13.887c2.848,5.697,19.049,30.623,19.049,30.623s35.785-18.161,34.717-26.706
		c-1.068-8.546-8.367-18.694-8.367-18.694L277.897,125.388z"/>
        <path fill="#F9C89A" stroke="#000000" stroke-width="0.5" stroke-miterlimit="10" d="M365.905,254.7
		c1.188-1.185,3.798-7.002-3.204-9.138c-5.578-0.712-9.614,1.899-10.801,3.204c-1.187,1.306,2.491,8.31,4.747,8.546
		C358.903,257.55,365.905,254.7,365.905,254.7z"/>
        <path fill="#F9C89A" stroke="#000000" stroke-width="0.5" stroke-miterlimit="10" d="M370.772,261.109
		c1.067-1.542,3.324-5.458-1.899-8.07c-5.223-2.612-12.226,0.12-14.006,2.85c-1.78,2.729,2.966,8.782,3.917,8.782
		C359.734,264.671,370.772,261.109,370.772,261.109z"/>
        <path fill="#F9C89A" stroke="#000000" stroke-width="0.5" stroke-miterlimit="10" d="M359.082,232.387l-6.588,11.573
		c0,0,3.679,4.806,5.103,10.86c1.425,6.053-0.949,8.19,1.069,7.834c2.018-0.356,13.769-3.562,16.023-2.137
		c2.254,1.424,5.341,7.24,3.204,11.157c-2.136,3.916-8.309,11.988-16.974,14.123c-8.664,2.138-19.106-1.78-23.024-7.239
		c-3.916-5.46-10.088-23.025-10.325-26.111c-0.238-3.087,3.916-12.463,3.916-12.463l16.143-7.24L359.082,232.387z"/>
        <path fill="#F9C89A" stroke="#000000" stroke-width="0.5" stroke-miterlimit="10" d="M350.714,243.069
		c2.967,1.662,7.717,5.34,8.902,11.631c1.186,6.292-1.305,14.243-5.342,17.567"/>
        <path fill="#F9C89A" stroke="#000000" stroke-width="0.5" stroke-miterlimit="10" d="M371.129,271.08c0,0-2.85,4.037-9.496,3.087
		c-6.646-0.95-6.172-9.259-2.967-11.513c3.205-2.257,8.308-4.035,11.75-3.442c3.442,0.594,5.103,2.136,5.103,2.136"/>
        <path fill="#F9C89A" stroke="#000000" stroke-width="0.5" stroke-miterlimit="10" d="M362.108,264.314l3.204,5.936
		c0,0-2.02,1.662-4.393,0.593c-2.373-1.066-2.374-2.85-1.779-4.392C359.734,264.908,362.108,264.314,362.108,264.314z"/>
        <path fill="#6D9758" stroke="#000000" stroke-width="0.5" stroke-miterlimit="10" d="M337.776,135.892
		c0,0,13.177,6.943,15.312,15.489c6.41,2.136,13.945,11.542,13.232,18.427c6.886,2.849,9.94,6.84,9.94,11.35
		c3.799,3.323,9.481,11.847,2.598,24.19c-6.885,12.343-10.928,20.878-10.928,20.878l-27.54-2.378l-2.375-8.312l12.818-23.74
		c0,0-5.698-9.258-12.345-9.495c-1.663,7.121-3.323,17.327-3.323,17.327l0.712,39.168l-3.561,2.137l-0.712,8.784l8.782,18.278
		l3.087,2.848l-8.071,12.582l1.898,3.561l10.92,26.825l-0.236,3.321l6.409,8.309l-0.239,3.562l3.562,8.783l-6.885,15.668
		l-4.273,8.544l4.036,12.345c0,0-11.158,10.208-29.675,9.97c-18.515-0.238-31.096-9.733-31.096-9.733l-3.56-2.137
		c0,0,4.034-23.262,3.085-36.318c-0.95-13.057-3.798-32.76-3.798-37.269c0-4.51-1.188-17.328-1.188-17.328s-1.664,27.297-1.9,41.066
		c-0.236,13.768-2.135,32.521-4.509,36.317c-2.374,3.799-4.985,4.986-4.985,4.986l2.611,4.51l0.713,5.459l-2.849,3.562l-5.223-1.424
		c0,0-10.209,11.87-28.724,9.733c-18.517-2.138-29.91-11.392-31.097-18.99c-4.272-3.086-4.748-5.222-4.748-5.222l12.106-14.007
		l-6.885-4.035l5.698-10.209c0,0,4.036-9.969,4.748-13.293c0.712-3.322,2.849-11.395,2.849-11.395l-5.934,0.237l9.733-15.191
		l-0.712-10.444l17.803-37.744l-0.713-6.172l-2.389-3.323l-1.943-13.175l1.247-7.121c0,0,6.158-7.477,6.87-13.649
		c0.713-6.172-2.959-12.344-2.959-12.344l-41.599,27.298l-5.962,0.475l-17.105,7.596l-4.042-1.662c0,0-1.429-2.373-1.903-6.17
		c-0.475-3.799-0.001-20.891,1.423-23.265c1.424-2.374,4.747-2.374,4.747-2.374s5.46-0.95,9.733-3.799
		c4.273-2.848,30.621-22.313,37.03-27.298c6.41-4.985,28.724-24.213,28.724-24.213s7.598-5.934,11.868-7.358
		c4.273-1.424,7.121-1.187,7.121-1.187l0.239,20.415l19.228,21.78l20.89-12.522l16.617-15.431L337.776,135.892z"/>
        <path fill="#6D9758" stroke="#000000" stroke-width="0.5" stroke-miterlimit="10" d="M274.693,126.1l-2.85,1.78l-12.284,20.474
		l13.354,1.247l-4.808,9.258l25.281,13.353l2.135-2.492c0,0-14.062-17.27-18.335-22.61c-4.273-5.342-5.52-17.27-0.713-20.475
		C281.281,123.429,274.693,126.1,274.693,126.1"/>
        <path fill="#6D9758" stroke="#000000" stroke-width="0.5" stroke-miterlimit="10" d="M286.087,174.97l38.188-6.364l-4.494-16.269
		l16.334,2.07l1.424-18.872l-16.913-10.86l-1.602-0.178c0,0,4.095,5.341,4.271,11.928c0.179,6.588-5.874,11.573-10.86,15.846
		C307.451,156.544,286.087,174.97,286.087,174.97z"/>
        <polygon fill="#6D9758" stroke="#000000" stroke-width="0.5" stroke-miterlimit="10" points="337.896,179.688 340.566,193.219
		316.888,208.353 312.614,188.056 	"/>
        <polyline fill="#6D9758" stroke="#000000" stroke-width="0.5" stroke-miterlimit="10" points="285.317,175.415 286.267,230.726
		281.992,246.393 281.756,261.586 281.044,276.542 284.366,281.526 293.387,279.389 	"/>
        <polygon fill="#6D9758" stroke="#000000" stroke-width="0.5" stroke-miterlimit="10" points="295.998,243.069 296.946,249.717
		310.954,252.328 310.004,244.257 	"/>
        <polyline fill="#6D9758" stroke="#000000" stroke-width="0.5" stroke-miterlimit="10" points="332.318,240.933 319.973,244.02
		321.636,252.328 331.606,249.717 	"/>
        <polygon fill="#6D9758" stroke="#000000" stroke-width="0.5" stroke-miterlimit="10" points="279.382,242.357 279.857,250.904
		267.274,249.717 268.699,241.408 	"/>
        <polyline fill="#6D9758" stroke="#000000" stroke-width="0.5" stroke-miterlimit="10" points="242.349,239.271 257.779,239.746
		257.067,248.53 243.062,246.393 	"/>
        <polygon fill="#6D9758" stroke="#000000" stroke-width="0.5" stroke-miterlimit="10" points="243.062,189.659 268.937,209.837
		276.771,190.608 248.996,178.976 	"/>
        <path fill="#6D9758" stroke="#000000" stroke-width="0.5" stroke-miterlimit="10" d="M368.161,232.209c0,0,0-7.656,2.314-10.683
		c-5.697-2.492-19.404-8.011-26.882-7.121c-3.561,4.272-9.91,16.735-7.715,24.391C344.128,235.948,368.161,232.209,368.161,232.209z
		"/>
        <path fill="#6D9758" stroke="#000000" stroke-width="0.5" stroke-miterlimit="10" d="M188.167,186.81l8.189,11.929l5.164,13.353
		c0,0-3.205,4.451-6.766,6.053c-3.561,1.603-16.261,6.884-16.261,6.884l-4.036-1.662c0,0,3.739-2.374,4.273-15.904
		c0.533-13.531-2.849-15.311-2.849-15.311l8.012-3.027L188.167,186.81z"/>
        <path fill="#6D9758" stroke="#000000" stroke-width="0.5" stroke-miterlimit="10" d="M309.054,312.325
		c0,0,5.162,17.982,12.641,29.555c3.739-2.492,29.732-4.272,36.024-4.095"/>
        <path fill="none" stroke="#000000" stroke-width="0.5" stroke-miterlimit="10" d="M208.878,343.482
		c4.748,1.246,24.867,4.096,24.867,4.096s10.86,2.67,16.735,0.177c3.026-6.766,12.107-38.1,12.107-38.1s-8.726-10.148-16.558-11.751
		c-7.833-1.602-20.118-5.874-20.118-5.874"/>
        <path fill="#6D9758" stroke="#000000" stroke-width="0.5" stroke-miterlimit="10" d="M222.172,308.586
		c4.273-0.533,25.46,0,37.566,8.725"/>

        <line fill="none" stroke="#000000" stroke-width="0.5" stroke-miterlimit="10" x1="215.763" y1="347.518"
              x2="219.145" y2="359.326"/>
        <path fill="#6D9758" stroke="#000000" stroke-width="0.5" stroke-miterlimit="10" d="M209.176,366.627
		c8.011,5.696,29.02,17.091,57.327,4.449"/>
        <path fill="none" stroke="#000000" stroke-width="0.5" stroke-miterlimit="10" d="M290.716,374.993
		c9.792,3.918,34.005,4.986,46.646-2.136"/>
        <path fill="#6D9758" stroke="#000000" stroke-width="0.5" stroke-miterlimit="10" d="M332.378,370.898
		c12.64,4.095,30.977,4.808,33.113,0.357c2.136-4.452-18.931-9.259-18.931-9.259"/>
        <path fill="#6D9758" stroke="#000000" stroke-width="0.5" stroke-miterlimit="10" d="M322.763,362.888
		c15.489,2.314,32.936-0.712,32.936-6.054c0-5.34-23.855-4.628-23.855-4.628"/>
        <path fill="#6D9758" stroke="#000000" stroke-width="0.5" stroke-miterlimit="10" d="M336.649,286.511
		c5.164,6.231,9.08,12.105,13.532,13.53c-10.683,1.78-36.321,7.121-40.237,11.572c-1.78-4.095-3.205-6.232-5.52-7.834
		C309.054,297.548,336.649,286.511,336.649,286.511z"/>
        <path fill="#F9C89A" stroke="#000000" stroke-width="0.5" stroke-miterlimit="10" d="M176.951,195.534
		c-6.409-0.712-19.583-3.383-24.391-15.846c-3.027-6.231-8.012-7.299-10.327-8.901c-3.026-2.671-7.299-4.629-13.353-3.739
		c-6.053,0.89-15.667-0.535-21.72-4.095c-6.053-3.561-12.462-1.246-14.6,1.78c-2.136,3.027-2.314,7.299-0.177,9.614
		c2.136,2.314,3.56,3.739,3.56,3.739s-8.367,1.246-9.079,7.477s3.738,9.258,6.587,10.504s5.341,1.424,5.341,1.424
		s-3.205,4.273-0.89,8.368c2.314,4.095,8.011,5.875,8.011,5.875s2.671,3.738,5.52,4.272s20.118,1.424,20.118,1.424
		s7.122-2.671,11.217-3.026c4.095-0.356,13.708-0.534,16.913,0.89c3.205,1.424,17.27,1.78,17.27,1.78s1.781-7.655,1.603-11.75
		C178.375,201.231,176.951,195.534,176.951,195.534z"/>
        <linearGradient id="SVGID_1_" gradientUnits="userSpaceOnUse" x1="79.2695" y1="421.5791" x2="172.5811"
                        y2="421.5791">
		<stop offset="0" style="stop-color:#442B1F"/>
            <stop offset="1" style="stop-color:#442B1F"/>
	</linearGradient>
        <path fill="url(#SVGID_1_)" d="M151.196,385.022c-9.733,0.949-61.481-0.713-71.926-6.884c0.712,35.606,10.682,67.177,17.092,74.062
		c6.409,6.885,26.349,12.818,47.001,12.818s33.312-6.204,28.011-14.479C155.707,426.089,151.196,385.022,151.196,385.022z"/>
        <linearGradient id="SVGID_2_" gradientUnits="userSpaceOnUse" x1="113.2134" y1="270.7207" x2="128.5"
                        y2="270.7207">
		<stop offset="0" style="stop-color:#C8B091"/>
            <stop offset="0.1987" style="stop-color:#C5A788"/>
            <stop offset="0.529" style="stop-color:#BC8E6E"/>
            <stop offset="0.9479" style="stop-color:#AD6745"/>
            <stop offset="0.9944" style="stop-color:#AB6240"/>
	</linearGradient>
        <path fill="url(#SVGID_2_)" stroke="#000000" stroke-miterlimit="10" d="M128.5,428.94V112.5h-15.287
		c0,0,0.384,258.632,0.384,272.163c0,13.529,0.385,23.386,1.922,29.082c1.536,5.696,6.49,13.116,8.796,14.185
		C126.619,428.997,128.5,428.94,128.5,428.94z"/>
        <linearGradient id="SVGID_3_" gradientUnits="userSpaceOnUse" x1="114.4009" y1="401.3652" x2="127.5762"
                        y2="401.3652">
		<stop offset="0" style="stop-color:#88786F"/>
            <stop offset="0.1054" style="stop-color:#806F66"/>
            <stop offset="0.2806" style="stop-color:#6B574C"/>
            <stop offset="0.5027" style="stop-color:#493023"/>
            <stop offset="0.6219" style="stop-color:#34180A"/>
            <stop offset="1" style="stop-color:#3E2316"/>
	</linearGradient>
        <path fill="url(#SVGID_3_)" d="M127.457,390h-13.056c0,0,0,19.707,1.662,22.557c2.255,0.117,11.513,0.175,11.513,0.175L127.457,390
		z"/>
        <path fill="#F9C89A" stroke="#000000" stroke-width="0.5" stroke-miterlimit="10" d="M108.704,184.792c0,0-3.917,6.765-3.68,8.902
		c0.238,2.136,7.597,0.594,8.071-2.137C113.57,188.828,108.704,184.792,108.704,184.792z"/>
        <path fill="#F9C89A" stroke="#000000" stroke-width="0.5" stroke-miterlimit="10" d="M112.502,216.364
		c3.205,0.178,9.08,0.534,11.216-2.314c2.137-2.849,7.299-5.519,7.299-8.724c0-3.205-0.89-4.985-4.094-7.478
		c-3.205-2.493-18.872,3.561-19.762,5.163c-0.891,1.603-2.137,6.054-1.602,7.299c0.534,1.247,1.602,3.562,3.205,4.629
		C110.365,216.008,112.502,216.364,112.502,216.364z"/>
        <path fill="#F9C89A" stroke="#000000" stroke-width="0.5" stroke-miterlimit="10" d="M121.76,203.189l4.273,3.027
		c0,0,4.272-3.383,0.356-5.875c-3.917-2.492-4.986,1.246-4.986,1.246L121.76,203.189z"/>
        <path fill="#F9C89A" stroke="#000000" stroke-width="0.5" stroke-miterlimit="10" d="M103.481,210.904
		c2.136,0.594,1.9,2.018,7.36,0.594c5.458-1.424,11.631-6.172,13.411-10.445c1.781-4.273-8.188-11.275-12.343-10.327
		c-4.154,0.949-11.276,4.392-13.116,6.766s-2.196,7.003-1.009,8.783C98.971,208.056,103.481,210.904,103.481,210.904z"/>
        <path fill="#F9C89A" stroke="#000000" stroke-width="0.5" stroke-miterlimit="10" d="M122.828,177.789
		c-1.306-1.897-2.612-5.697-4.273-6.765c-1.662-1.068-7.121-5.341-8.783-6.409c-1.662-1.068-6.765-4.985-11.157-3.798
		c-4.392,1.187-8.428,3.68-7.834,9.614c0.593,5.934,4.392,6.528,6.409,8.545s4.867,4.867,6.529,5.816
		c1.661,0.949,6.409,3.205,9.97,3.561c3.561,0.356,7.002-1.9,8.308-4.155S122.828,177.789,122.828,177.789z"/>
        <path fill="#F9C89A" stroke="#000000" stroke-width="0.5" stroke-miterlimit="10" d="M115.826,174.228l-6.054,9.97
		c0,0,6.605,2.436,9.021-1.186C122.116,178.026,115.826,174.228,115.826,174.228z"/>
        <path fill="#F9C89A" stroke="#000000" stroke-width="0.5" stroke-miterlimit="10" d="M131.551,168.828
		c-5.341,1.603-18.693,13.887-21.364,20.474c-2.67,6.587-1.78,12.285,3.561,14.421c5.341,2.137,13.175-2.67,15.311-6.587
		c2.136-3.917,5.519-16.558,5.519-16.558"/>
        <path fill="#F9C89A" stroke="#000000" stroke-width="0.5" stroke-miterlimit="10" d="M113.689,190.727l11.988,6.053
		c0,0-1.782,3.324-5.46,3.798c-3.679,0.475-7.833-2.493-7.952-4.985S113.689,190.727,113.689,190.727z"/>
        <path fill="#F9C89A" stroke="#000000" stroke-width="0.5" stroke-miterlimit="10" d="M131.968,189.659
		c1.186,2.136,7.714,8.309,11.274,8.664"/>
        <path fill="#F9C89A" stroke="#000000" stroke-width="0.5" stroke-miterlimit="10" d="M142.174,214.464
		c2.493-0.592,4.154-2.018,5.698-3.204"/>
        <linearGradient id="SVGID_4_" gradientUnits="userSpaceOnUse" x1="292.1396" y1="181.7358" x2="301.2207"
                        y2="181.7358">
		<stop offset="0" style="stop-color:#F8FB9B"/>
            <stop offset="0.1255" style="stop-color:#F5F892"/>
            <stop offset="0.3343" style="stop-color:#EFEF78"/>
            <stop offset="0.6005" style="stop-color:#E3E14F"/>
            <stop offset="0.9108" style="stop-color:#D4CE16"/>
            <stop offset="1" style="stop-color:#CFC804"/>
	</linearGradient>
        <circle fill="url(#SVGID_4_)" stroke="#000000" stroke-width="0.5" stroke-miterlimit="10" cx="296.68"
                cy="181.736" r="4.541"/>
        <circle fill="none" stroke="#000000" stroke-width="0.1" stroke-miterlimit="10" cx="296.65" cy="181.706"
                r="3.561"/>
        <linearGradient id="SVGID_5_" gradientUnits="userSpaceOnUse" x1="290.7158" y1="207.373" x2="299.7959"
                        y2="207.373">
		<stop offset="0" style="stop-color:#F8FB9B"/>
            <stop offset="0.1255" style="stop-color:#F5F892"/>
            <stop offset="0.3343" style="stop-color:#EFEF78"/>
            <stop offset="0.6005" style="stop-color:#E3E14F"/>
            <stop offset="0.9108" style="stop-color:#D4CE16"/>
            <stop offset="1" style="stop-color:#CFC804"/>
	</linearGradient>
        <circle fill="url(#SVGID_5_)" stroke="#000000" stroke-width="0.5" stroke-miterlimit="10" cx="295.256"
                cy="207.374" r="4.54"/>
        <circle fill="none" stroke="#000000" stroke-width="0.1" stroke-miterlimit="10" cx="295.225" cy="207.343"
                r="3.561"/>
        <linearGradient id="SVGID_6_" gradientUnits="userSpaceOnUse" x1="289.293" y1="233.0098" x2="298.3711"
                        y2="233.0098">
		<stop offset="0" style="stop-color:#F8FB9B"/>
            <stop offset="0.1255" style="stop-color:#F5F892"/>
            <stop offset="0.3343" style="stop-color:#EFEF78"/>
            <stop offset="0.6005" style="stop-color:#E3E14F"/>
            <stop offset="0.9108" style="stop-color:#D4CE16"/>
            <stop offset="1" style="stop-color:#CFC804"/>
	</linearGradient>
        <circle fill="url(#SVGID_6_)" stroke="#000000" stroke-width="0.5" stroke-miterlimit="10" cx="293.832"
                cy="233.01" r="4.539"/>
        <circle fill="none" stroke="#000000" stroke-width="0.1" stroke-miterlimit="10" cx="293.801" cy="232.98"
                r="3.561"/>
</g>
    <g id="head">
	<path fill="#F9C89A" stroke="#000000" stroke-width="0.5" stroke-miterlimit="10" d="M260.745,78.92l-3.916-1.068
		c0,0-2.136,0.475-1.9,1.543c0.238,1.068,1.781,2.374,1.663,4.273c-0.119,1.898-0.356,5.577,1.068,7.952
		c1.424,2.375,4.866,5.935,6.646,6.884c1.779,0.949,2.256-0.476,2.256-0.476s1.661,17.092,2.137,18.873
		c0.474,1.78,2.968,6.172,7.001,9.614c4.037,3.442,10.922,11.275,14.126,13.649c3.204,2.374,13.767,4.392,18.277-0.237
		s14.243-15.311,15.311-16.854c1.069-1.543,4.154-5.223,4.036-6.646c-0.118-1.425-0.592-16.617-0.592-17.211
		c0.712,0.237,2.253-0.593,3.084-1.306c0.832-0.712,6.054-6.408,5.935-8.901c-0.117-2.493-1.661-9.376-1.067-9.852
		c0.595-0.475,1.424-2.373,0.356-2.848c-1.068-0.476-7.36,4.154-7.36,4.154s-1.273-16.231-7.12-20.415
		c-5.846-4.185-53.174-7.121-56.021-3.323C261.815,60.523,260.745,78.92,260.745,78.92z"/>
        <polygon points="269.385,98.623 267.912,95.595 265.814,87.436 258.178,78.431 256,65.389 256,62.896 274.574,57.318
		270.332,64.796 266.904,76.546 267.062,82.006 269,84.855 269,92.807 	"/>
        <path fill="#161616" stroke="#000000" stroke-width="0.5" stroke-miterlimit="10" d="M331.486,71.62
		c12.285,8.012-3.738,5.698-16.913,1.247c-13.176-4.452-39.524-12.106-45.576-12.285c-6.054-0.178,40.057-3.739,47.178-1.425
		S331.486,71.62,331.486,71.62z"/>
        <linearGradient id="SVGID_7_" gradientUnits="userSpaceOnUse" x1="296.7588" y1="68.5942" x2="296.7588"
                        y2="22.9673">
		<stop offset="0.3724" style="stop-color:#1D2739"/>
            <stop offset="0.9944" style="stop-color:#1D2739"/>
	</linearGradient>
        <path fill="url(#SVGID_7_)" stroke="#000000" stroke-width="0.5" stroke-miterlimit="10" d="M255.879,59.099
		c-15.19-7.358-15.19-16.853,0.951-27.061c16.142-10.208,45.577-10.683,59.345-6.885c13.77,3.798,35.131,17.329,32.521,30.623
		c-2.611,10.207-14.479,12.818-14.479,12.818L255.879,59.099z"/>
        <path fill="#03468B" stroke="#000000" stroke-width="0.5" stroke-miterlimit="10" d="M257.244,64.143c0,0-1.066-5.52-1.779-8.012
		c21.898-12.997,62.313-13.353,80.473,8.724c-0.533,1.603-2.848,5.52-4.451,6.765C300.33,48.476,257.244,64.143,257.244,64.143z"/>
        <polygon fill="#FFFFFF" points="297.659,54.528 297.304,56.666 282.705,55.419 293.387,45.805 286.087,45.449 286.267,43.135
		299.617,44.737 289.471,53.461 	"/>
        <path fill="#FFFFFF" d="M310.923,46.606c4.006,2.314,5.342,6.053,3.917,9.257s-6.588,3.472-8.813,2.76s-7.387-4.095-4.984-9.435
		C302.645,46.072,306.917,44.292,310.923,46.606z M303.65,50.632c-1.475,3.276,1.693,5.353,3.058,5.79
		c1.367,0.437,4.534,0.272,5.408-1.693c0.874-1.967,0.055-4.261-2.404-5.681C307.255,47.627,304.632,48.72,303.65,50.632z"/>
        <path fill="#FFFFFF" d="M324.439,50.622c3.688,1.963,5.454,5.832,4.868,9.499c-0.585,3.665-4.75,4.656-6.698,4.188
		c-1.945-0.47-6.771-3.433-5.771-9.547C317.586,51.167,320.752,48.657,324.439,50.622z M319.23,55.971
		c-0.615,3.751,2.348,5.57,3.538,5.858c1.196,0.287,3.749-0.321,4.107-2.568c0.361-2.25-0.722-4.624-2.983-5.83
		C321.63,52.225,319.685,53.764,319.23,55.971z"/>
        <polygon points="323,98.504 325.345,95.655 326.339,85.685 330.159,78.92 330.526,75.003 323.946,74.054 325.52,82.362
		322.955,88.416 323,95.062 	"/>
        <path fill="none" stroke="#000000" stroke-miterlimit="10" d="M320.923,84.024c-1.186-0.712-4.154-3.561-5.577-3.561
		c-1.425,0-5.342,1.186-7.123,1.305c-1.78,0.119-7.238,2.255-7.713,2.73"/>
        <path fill="none" stroke="#000000" stroke-miterlimit="10" d="M288.283,84.736c-1.187,0-4.746-1.187-5.458-1.543
		c-0.713-0.356-4.273-0.237-4.273-0.237l-2.731-1.78l-3.679,3.442"/>
        <path fill="none" stroke="#000000" stroke-width="0.5" stroke-miterlimit="10" d="M290.42,88.178
		c0.831,0.475,2.731,3.085,2.611,4.51c-0.119,1.424-2.137,15.074-1.899,15.43c0.238,0.356,4.63,1.067,5.223,0.593"/>
        <path fill="none" stroke="#000000" stroke-width="0.5" stroke-miterlimit="10" d="M299.559,107.287
		c0.83-0.119,1.9-0.356,2.73,0.712"/>
        <path fill="none" stroke="#000000" stroke-width="0.5" stroke-miterlimit="10" d="M287.81,90.314
		c-2.02-4.273-10.21-4.273-13.294,0.119"/>
        <path fill="none" stroke="#000000" stroke-width="0.5" stroke-miterlimit="10" d="M303.12,90.671
		c0.948-5.223,12.936-6.291,15.548-1.069"/>
        <ellipse cx="281.399" cy="90.255" rx="3.679" ry="2.907"/>
        <ellipse cx="310.419" cy="89.068" rx="3.857" ry="3.026"/>
        <path fill="#D8D8D8" stroke="#000000" stroke-width="0.5" stroke-miterlimit="10" d="M283.181,116.308
		c5.696,7.241,22.669,7.002,26.556-1.188c-1.306,0.356-3.368,1.128-3.368,1.128s-7.047,0.297-8.589,1.127
		c-1.069,0-2.493,0.237-2.493,0.237s-7.003-0.949-8.071-0.237C286.146,118.088,283.181,116.308,283.181,116.308z"/>
        <path fill="none" stroke="#000000" stroke-width="0.5" stroke-miterlimit="10" d="M305.73,122.005
		c-3.799,4.51-13.531,4.391-17.447,0.949"/>
        <path fill="#FCFCFC"
              d="M306.621,88.593l4.391,0.535c0,0-2.67,1.187-3.737,1.662C306.562,90.077,306.621,88.593,306.621,88.593z"/>
        <path fill="#FCFCFC"
              d="M278.135,90.018l4.393,0.534c0,0-2.67,1.188-3.739,1.663C278.076,91.502,278.135,90.018,278.135,90.018z"/>
        <path fill="none" stroke="#000000" stroke-width="0.5" stroke-miterlimit="10" d="M332.198,81.057
		c-0.801,1.424-3.114,4.362-3.294,5.786c-0.177,1.425,0.979,5.075,0.891,5.786"/>
        <path fill="none" stroke="#000000" stroke-width="0.5" stroke-miterlimit="10" d="M331.219,89.958
		c-0.178-0.979-0.801-3.649-1.779-4.184"/>
        <path fill="none" stroke="#000000" stroke-width="0.5" stroke-miterlimit="10" d="M258.313,80.967
		c0.891,1.247,5.431,4.985,5.608,6.499c0.178,1.513-0.979,3.828-0.623,5.162c0.356,1.335,1.246,3.383,1.246,3.383"/>
        <path fill="none" stroke="#000000" stroke-width="0.5" stroke-miterlimit="10" d="M261.607,91.294
		c-0.267-1.424,0.089-4.54,1.425-4.896"/>
</g>
</svg>
